<svg width="192" height="192" viewBox="0 0 192 192" fill="none" xmlns="http://www.w3.org/2000/svg">
<rect width="192" height="192" rx="24" fill="#667EEA"/>
<svg x="48" y="48" width="96" height="96" viewBox="0 0 24 24" fill="white">
<path d="M22.7 13.2L22 13.7L20 2.8C20 1.7 19.3 1 18.2 1H9.8C8.7 1 8 1.7 8 2.8V3.5H18V12H16V14H18V19V21V22H6V21V19V8H4V19H2V9C1.5 9.1 1 9.6 1 10.2V18.2C1 19.3 1.7 20 2.8 20H4.2V21.2C4.2 22.3 4.9 23 6 23H19C20.1 23 20.8 22.3 20.8 21.2V20.8C21 20.7 21.2 20.6 21.3 20.5L21.8 20.1L22.7 19S14.2 13.6 13.7 13.2ZM5 18H17V16H5V18ZM5 13H17V11H5V13Z"/>
</svg>
</svg>
